<?xml version="1.0" encoding="UTF-8"?>
<svg width="600" height="400" viewBox="0 0 600 400" xmlns="http://www.w3.org/2000/svg" shape-rendering="crispEdges">
  <!-- ClawBot HQ - Top-Down Pixel Office -->
  
  <!-- Floor -->
  <rect width="600" height="400" fill="#8B7355"/>
  
  <!-- Floor tiles pattern -->
  <g fill="#9C8264">
    <rect x="0" y="0" width="100" height="100"/>
    <rect x="200" y="0" width="100" height="100"/>
    <rect x="400" y="0" width="100" height="100"/>
    <rect x="100" y="100" width="100" height="100"/>
    <rect x="300" y="100" width="100" height="100"/>
    <rect x="500" y="100" width="100" height="100"/>
    <rect x="0" y="200" width="100" height="100"/>
    <rect x="200" y="200" width="100" height="100"/>
    <rect x="400" y="200" width="100" height="100"/>
    <rect x="100" y="300" width="100" height="100"/>
    <rect x="300" y="300" width="100" height="100"/>
    <rect x="500" y="300" width="100" height="100"/>
  </g>
  
  <!-- WALLS (Top and Left) -->
  <!-- Top wall -->
  <rect x="0" y="0" width="600" height="20" fill="#4A5568"/>
  <rect x="0" y="20" width="600" height="10" fill="#2D3748"/>
  
  <!-- Left wall -->
  <rect x="0" y="0" width="20" height="400" fill="#4A5568"/>
  <rect x="20" y="0" width="10" height="400" fill="#2D3748"/>
  
  <!-- Wall baseboards -->
  <rect x="30" y="25" width="570" height="5" fill="#718096"/>
  <rect x="25" y="30" width="5" height="370" fill="#718096"/>
  
  <!-- === SCOUT DESK (Top Left) === -->
  <!-- Desk -->
  <rect x="50" y="50" width="80" height="60" fill="#8B4513"/>
  <rect x="50" y="50" width="80" height="10" fill="#654321"/>
  <!-- Desk legs -->
  <rect x="55" y="110" width="8" height="15" fill="#654321"/>
  <rect x="117" y="110" width="8" height="15" fill="#654321"/>
  <!-- Computer -->
  <rect x="70" y="35" width="40" height="25" fill="#1A202C"/>
  <rect x="75" y="40" width="30" height="15" fill="#48BB78"/>
  <!-- Screen glow -->
  <rect x="78" y="43" width="6" height="6" fill="#68D391"/>
  <rect x="86" y="46" width="6" height="6" fill="#68D391"/>
  <!-- Chair -->
  <rect x="85" y="75" width="25" height="20" fill="#2D3748"/>
  <rect x="90" y="80" width="15" height="10" fill="#4A5568"/>
  <!-- Scout label -->
  <rect x="55" y="30" width="40" height="12" fill="#1A202C"/>
  <text x="75" y="39" font-family="monospace" font-size="8" fill="#48BB78" text-anchor="middle">SCOUT</text>
  
  <!-- === SCRIBE DESK (Mid Left) === -->
  <!-- Desk -->
  <rect x="50" y="180" width="80" height="60" fill="#8B4513"/>
  <rect x="50" y="180" width="80" height="10" fill="#654321"/>
  <!-- Legs -->
  <rect x="55" y="240" width="8" height="15" fill="#654321"/>
  <rect x="117" y="240" width="8" height="15" fill="#654321"/>
  <!-- Computer -->
  <rect x="70" y="165" width="40" height="25" fill="#1A202C"/>
  <rect x="75" y="170" width="30" height="15" fill="#ECC94B"/>
  <!-- Screen glow -->
  <rect x="78" y="173" width="6" height="6" fill="#F6E05E"/>
  <rect x="86" y="176" width="6" height="6" fill="#F6E05E"/>
  <!-- Papers on desk -->
  <rect x="55" y="195" width="20" height="15" fill="#FFFFFF"/>
  <rect x="58" y="198" width="14" height="3" fill="#A0AEC0"/>
  <rect x="58" y="203" width="10" height="3" fill="#A0AEC0"/>
  <!-- Chair -->
  <rect x="85" y="205" width="25" height="20" fill="#744210"/>
  <rect x="90" y="210" width="15" height="10" fill="#975A16"/>
  <!-- Scribe label -->
  <rect x="55" y="160" width="45" height="12" fill="#1A202C"/>
  <text x="77" y="169" font-family="monospace" font-size="8" fill="#ECC94B" text-anchor="middle">SCRIBE</text>
  
  <!-- === DIRECTOR CENTER TABLE === -->
  <!-- Conference table -->
  <rect x="220" y="120" width="160" height="100" fill="#654321"/>
  <rect x="225" y="125" width="150" height="90" fill="#8B6914"/>
  <!-- Table border -->
  <rect x="220" y="120" width="160" height="8" fill="#5C3A0C"/>
  <!-- Center monitor -->
  <rect x="270" y="95" width="60" height="35" fill="#1A202C"/>
  <rect x="275" y="100" width="50" height="25" fill="#E53E3E"/>
  <!-- Screen glow -->
  <rect x="280" y="105" width="8" height="8" fill="#FC8181"/>
  <rect x="292" y="110" width="8" height="8" fill="#FC8181"/>
  <rect x="304" y="107" width="8" height="8" fill="#FC8181"/>
  <!-- Chairs around table -->
  <!-- Top -->
  <rect x="285" y="85" width="30" height="20" fill="#2D3748"/>
  <!-- Bottom -->
  <rect x="285" y="235" width="30" height="20" fill="#2D3748"/>
  <!-- Left -->
  <rect x="195" y="155" width="20" height="30" fill="#2D3748"/>
  <!-- Right -->
  <rect x="385" y="155" width="20" height="30" fill="#2D3748"/>
  <!-- Director label -->
  <rect x="265" y="75" width="50" height="12" fill="#1A202C"/>
  <text x="290" y="84" font-family="monospace" font-size="8" fill="#E53E3E" text-anchor="middle">DIRECTOR</text>
  
  <!-- === ARCHITECT DESK (Mid Right) === -->
  <!-- Desk -->
  <rect x="470" y="50" width="80" height="60" fill="#8B4513"/>
  <rect x="470" y="50" width="80" height="10" fill="#654321"/>
  <!-- Legs -->
  <rect x="475" y="110" width="8" height="15" fill="#654321"/>
  <rect x="537" y="110" width="8" height="15" fill="#654321"/>
  <!-- Computer (dual monitor setup) -->
  <rect x="480" y="35" width="25" height="25" fill="#1A202C"/>
  <rect x="510" y="35" width="25" height="25" fill="#1A202C"/>
  <rect x="485" y="40" width="15" height="15" fill="#4299E1"/>
  <rect x="515" y="40" width="15" height="15" fill="#4299E1"/>
  <!-- Screen glow -->
  <rect x="487" y="43" width="5" height="5" fill="#63B3ED"/>
  <rect x="517" y="43" width="5" height="5" fill="#63B3ED"/>
  <!-- Keyboard -->
  <rect x="485" y="60" width="50" height="12" fill="#4A5568"/>
  <!-- Chair -->
  <rect x="505" y="75" width="25" height="20" fill="#2D3748"/>
  <!-- Architect label -->
  <rect x="475" y="30" width="55" height="12" fill="#1A202C"/>
  <text x="502" y="39" font-family="monospace" font-size="8" fill="#4299E1" text-anchor="middle">ARCHITECT</text>
  
  <!-- === ANALYST DESK (Bottom Left) === -->
  <!-- Desk -->
  <rect x="50" y="310" width="80" height="60" fill="#8B4513"/>
  <rect x="50" y="310" width="80" height="10" fill="#654321"/>
  <!-- Legs -->
  <rect x="55" y="370" width="8" height="15" fill="#654321"/>
  <rect x="117" y="370" width="8" height="15" fill="#654321"/>
  <!-- Computer -->
  <rect x="70" y="295" width="40" height="25" fill="#1A202C"/>
  <rect x="75" y="300" width="30" height="15" fill="#9F7AEA"/>
  <!-- Screen glow -->
  <rect x="78" y="303" width="6" height="6" fill="#B794F4"/>
  <rect x="86" y="306" width="6" height="6" fill="#B794F4"/>
  <!-- Charts/papers -->
  <rect x="55" y="325" width="25" height="20" fill="#FFFFFF"/>
  <rect x="58" y="328" width="8" height="3" fill="#48BB78"/>
  <rect x="58" y="333" width="12" height="3" fill="#E53E3E"/>
  <rect x="58" y="338" width="10" height="3" fill="#4299E1"/>
  <!-- Chair -->
  <rect x="85" y="335" width="25" height="20" fill="#553C9A"/>
  <!-- Analyst label -->
  <rect x="55" y="290" width="50" height="12" fill="#1A202C"/>
  <text x="80" y="299" font-family="monospace" font-size="8" fill="#9F7AEA" text-anchor="middle">ANALYST</text>
  
  === COUCH AREA (Bottom Right) ===
  <!-- Couch -->
  <rect x="450" y="300" width="120" height="50" fill="#744210"/>
  <rect x="450" y="300" width="120" height="15" fill="#975A16"/>
  <!-- Couch back -->
  <rect x="450" y="285" width="120" height="20" fill="#5C3A0C"/>
  <!-- Couch legs -->
  <rect x="455" y="350" width="8" height="10" fill="#2D3748"/>
  <rect x="557" y="350" width="8" height="10" fill="#2D3748"/>
  <!-- Coffee table -->
  <rect x="480" y="330" width="60" height="30" fill="#4A5568"/>
  <rect x="485" y="335" width="50" height="20" fill="#718096"/>
  <!-- Coffee mug on table -->
  <rect x="505" y="340" width="8" height="10" fill="#E53E3E"/>
  <rect x="507" y="342" width="4" height="4" fill="#FC8181"/>
  
  <!-- === WHITEBOARD (Right Wall) === -->
  <rect x="520" y="180" width="70" height="50" fill="#FFFFFF"/>
  <rect x="525" y="185" width="60" height="40" fill="#F7FAFC"/>
  <!-- Frame -->
  <rect x="515" y="175" width="80" height="5" fill="#4A5568"/>
  <rect x="515" y="230" width="80" height="5" fill="#4A5568"/>
  <rect x="515" y="175" width="5" height="60" fill="#4A5568"/>
  <rect x="590" y="175" width="5" height="60" fill="#4A5568"/>
  <!-- Charts on whiteboard -->
  <rect x="530" y="195" width="15" height="25" fill="#48BB78"/>
  <rect x="550" y="200" width="15" height="20" fill="#4299E1"/>
  <rect x="570" y="190" width="10" height="30" fill="#E53E3E"/>
  <!-- Trend line -->
  <rect x="530" y="190" width="50" height="2" fill="#A0AEC0"/>
  
  <!-- === PLANTS === -->
  <!-- Top right plant -->
  <rect x="570" y="30" width="15" height="20" fill="#2F855A"/>
  <rect x="565" y="20" width="8" height="8" fill="#48BB78"/>
  <rect x="575" y="15" width="8" height="8" fill="#48BB78"/>
  <rect x="585" y="20" width="8" height="8" fill="#48BB78"/>
  <rect x="575" y="25" width="8" height="8" fill="#68D391"/>
  
  <!-- Bottom left plant -->
  <rect x="30" y="360" width="15" height="20" fill="#2F855A"/>
  <rect x="25" y="350" width="8" height="8" fill="#48BB78"/>
  <rect x="35" y="345" width="8" height="8" fill="#48BB78"/>
  <rect x="45" y="350" width="8" height="8" fill="#48BB78"/>
  <rect x="35" y="355" width="8" height="8" fill="#68D391"/>
  
  <!-- === DECOR === -->
  <!-- ClawBot HQ Sign on wall -->
  <rect x="250" y="35" width="100" height="25" fill="#1A202C"/>
  <rect x="255" y="40" width="90" height="15" fill="#2D3748"/>
  <text x="300" y="50" font-family="monospace" font-size="10" fill="#FBBF24" text-anchor="middle" font-weight="bold">CLAWBOT HQ</text>
  
  <!-- Clock on wall -->
  <circle cx="150" y="80" r="15" fill="#FFFFFF"/>
  <circle cx="150" cy="80" r="12" fill="#F7FAFC"/>
  <rect x="150" y="72" width="2" height="8" fill="#1A202C"/>
  <rect x="150" y="78" width="6" height="2" fill="#1A202C"/>
  
  <!-- Exit door -->
  <rect x="580" y="100" width="15" height="40" fill="#4A5568"/>
  <rect x="582" y="102" width="11" height="36" fill="#2D3748"/>
  <rect x="588" y="120" width="3" height="6" fill="#FBBF24"/>
</svg>
